#!OML:ASF E:\emotionWalksFemale\Project 1\Capture day 1\Session 1\Female1.ASF
:FULLY-SPECIFIED
:DEGREES
197
root 8.76166 15.0806 42.0116 180.214 -15.2154 -180.458
lowerback 7.10712 2.76096 3.46236
upperback -3.741 4.02735 0.160774
thorax -7.70037 1.77574 -2.30962
lowerneck -1.62396 16.9182 8.39354
upperneck 11.1824 22.7454 -4.91157
head 5.15275 11.2198 -1.36057
rclavicle 2.68856e-014 1.63003e-014
rhumerus -49.4199 17.2364 -100.821
rradius 36.576
rwrist 9.50137
rhand -2.15411 -57.1785
rfingers 7.12502
rthumb 23.5256 -85.7598
lclavicle 2.68856e-014 1.63003e-014
lhumerus -41.0109 -8.8081 92.516
lradius 35.2306
lwrist -17.4444
lhand -6.38616 -38.1946
lfingers 7.12502
lthumb 19.4611 -9.14854
rfemur -5.56789 14.4022 27.4666
rtibia 29.1864
rfoot -36.6126 -39.3708
rtoes 27.7803
lfemur -13.2937 -22.5568 -22.6802
ltibia 32.8448
lfoot -22.2884 9.82457
ltoes -38.0786
198
root 8.75784 15.0801 42.0074 180.148 -15.1058 -180.413
lowerback 7.35042 2.79361 3.39812
upperback -3.88171 4.08202 0.268246
thorax -8.00251 1.79683 -2.18754
lowerneck -1.4508 16.9104 8.3749
upperneck 11.2505 22.7503 -4.95991
head 5.15045 11.2188 -1.38403
rclavicle 3.36195e-014 7.15625e-015
rhumerus -49.6048 17.122 -100.662
rradius 36.8048
rwrist 8.71494
rhand -1.61708 -57.9312
rfingers 7.12502
rthumb 24.0406 -86.4455
lclavicle 3.36195e-014 7.15625e-015
lhumerus -41.1475 -8.41638 92.5171
lradius 34.9851
lwrist -17.8106
lhand -6.78853 -38.5668
lfingers 7.12502
lthumb 19.0742 -9.4821
rfemur -5.50621 14.3811 27.5063
rtibia 29.1968
rfoot -36.4589 -39.3494
rtoes 27.2881
lfemur -13.1673 -22.8676 -22.706
ltibia 32.836
lfoot -22.3212 10.0844
ltoes -38.0045
199
root 8.75586 15.0806 42.0049 180.109 -14.9612 -180.376
lowerback 7.09356 2.786 3.5468
upperback -3.72719 4.0721 0.222388
thorax -7.67401 1.79542 -2.2962
lowerneck -1.35115 16.894 8.616
upperneck 10.9842 22.7596 -5.3365
head 5.12315 11.2209 -1.53251
rclavicle -3.62782e-015 2.3059e-014
rhumerus -49.4443 17.2665 -100.822
rradius 36.6519
rwrist 9.18668
rhand -2.33189 -57.5811
rfingers 7.12502
rthumb 23.355 -86.1842
lclavicle -3.62782e-015 2.3059e-014
lhumerus -40.9239 -8.45798 92.4233
lradius 35.0089
lwrist -17.7012
lhand -5.92515 -38.2113
lfingers 7.12502
lthumb 19.9043 -9.21057
rfemur -5.48058 14.3804 27.5309
rtibia 29.2019
rfoot -36.1146 -39.3052
rtoes 27.1718
lfemur -13.1151 -22.6629 -22.6845
ltibia 32.8281
lfoot -22.2817 10.1469
ltoes -38.4822
200
root 8.75629 15.0804 42.005 180.142 -14.8448 -180.407
lowerback 6.39029 2.7395 3.87173
upperback -3.32081 3.99354 0.000182906
thorax -6.79995 1.7702 -2.64347
lowerneck -1.36082 16.8708 8.96276
upperneck 10.3747 22.7562 -5.85081
head 5.03308 11.222 -1.73676
rclavicle -8.18247e-014 -5.1684e-015
rhumerus -48.6862 17.3132 -100.969
rradius 36.4674
rwrist 9.3807
rhand -2.65883 -57.3999
rfingers 7.12502
rthumb 23.0414 -86.0425
lclavicle -8.18247e-014 -5.1684e-015
lhumerus -40.2787 -8.67518 92.0662
lradius 35.0484
lwrist -17.4371
lhand -5.9782 -38.3419
lfingers 7.12502
lthumb 19.8533 -9.33596
rfemur -5.53902 14.4129 27.4684
rtibia 29.2097
rfoot -35.9773 -39.3129
rtoes 27.2568
lfemur -13.1224 -22.618 -22.7098
ltibia 32.8129
lfoot -22.2895 10.3352
ltoes -38.755
201
root 8.75725 15.0801 42.0061 180.195 -14.808 -180.437
lowerback 6.79971 2.7572 3.49658
upperback -3.60179 4.0144 0.23157
thorax -7.37618 1.78071 -2.22948
lowerneck -1.34778 16.8593 8.65756
upperneck 10.6219 22.7384 -5.64796
head 5.04893 11.2052 -1.64083
rclavicle 5.05907e-014 7.95139e-015
rhumerus -49.1696 17.4469 -100.826
rradius 36.5139
rwrist 9.30828
rhand -2.70341 -57.3403
rfingers 7.12502
rthumb 22.9986 -85.9882
lclavicle 5.05907e-014 7.95139e-015
lhumerus -40.7535 -8.48792 92.4631
lradius 35.1505
lwrist -17.4029
lhand -6.10932 -38.573
lfingers 7.12502
lthumb 19.7273 -9.55405
rfemur -5.61752 14.4518 27.4218
rtibia 29.2338
rfoot -36.1186 -39.3243
rtoes 27.3253
lfemur -13.1242 -23.0225 -22.7447
ltibia 32.78
lfoot -22.3197 10.7214
ltoes -38.7611
202
root 8.75777 15.083 42.0062 180.243 -14.7444 -180.442
lowerback 6.32841 2.71179 3.6787
upperback -3.35177 3.94237 0.13776
thorax -6.82257 1.75502 -2.38395
lowerneck -1.43331 16.9447 8.42018
upperneck 10.326 22.8288 -5.43523
head 4.92454 11.2597 -1.55563
rclavicle 5.00689e-014 1.35174e-014
rhumerus -48.6734 17.4888 -100.793
rradius 36.4868
rwrist 9.11096
rhand -2.54174 -57.4033
rfingers 7.12502
rthumb 23.1537 -86.0319
lclavicle 5.00689e-014 1.35174e-014
lhumerus -40.4085 -8.60803 92.3048
lradius 35.2003
lwrist -17.302
lhand -7.14972 -38.4827
lfingers 7.12502
lthumb 18.7268 -9.36411
rfemur -5.68394 14.4776 27.4099
rtibia 29.2656
rfoot -36.1065 -39.1044
rtoes 27.1502
lfemur -13.1502 -22.9867 -22.7244
ltibia 32.7332
lfoot -22.2103 10.7868
ltoes -38.8397
